<svg width="138" height="31" viewBox="0 0 138 31" fill="none" xmlns="http://www.w3.org/2000/svg">
<path d="M40.3041 8.3926H46.0691C49.2625 8.3926 50.9205 9.70198 50.9205 12.1606V12.2831C50.966 13.0036 50.7514 13.7165 50.3158 14.2921C49.8801 14.8678 49.2524 15.268 48.5466 15.42C49.3918 15.4944 50.1735 15.8991 50.722 16.5464C51.2705 17.1937 51.5415 18.0312 51.4763 18.8771V18.9619C51.4763 21.6466 49.7147 23.0596 46.3329 23.0596H40.3041V8.3926ZM45.5322 14.412C47.1336 14.412 47.7648 13.8374 47.7648 12.528V12.4432C47.7648 11.2186 47.0677 10.6628 45.5134 10.6628H43.5446V14.4309L45.5322 14.412ZM45.8148 20.7517C47.4539 20.7517 48.1981 20.0075 48.1981 18.6793V18.5945C48.1981 17.238 47.4539 16.5504 45.6547 16.5504H43.5446V20.7611L45.8148 20.7517Z" fill="#1D2D35"/>
<path d="M52.343 20.0735C52.343 17.5678 54.6321 16.6258 57.9197 16.6258H59.1255V16.2019C59.1255 14.9301 58.7393 14.2331 57.3828 14.2331C57.1632 14.207 56.9406 14.2261 56.7287 14.2893C56.5168 14.3525 56.3201 14.4584 56.1507 14.6005C55.9812 14.7426 55.8427 14.9178 55.7435 15.1155C55.6444 15.3131 55.5867 15.5289 55.5741 15.7497H52.7481C52.9365 13.2063 54.943 12.0759 57.5712 12.0759C60.1994 12.0759 62.0551 13.1403 62.0551 16.0511V23.0408H59.1632V21.7503C58.8002 22.2616 58.3109 22.6702 57.743 22.936C57.175 23.2018 56.5478 23.3158 55.9227 23.2669C53.9821 23.2669 52.343 22.3249 52.343 20.0735ZM59.1255 19.2916V18.3496H57.9762C56.2524 18.3496 55.2538 18.7264 55.2538 19.8663C55.2538 20.6481 55.7249 21.1662 56.8082 21.1662C58.1175 21.2039 59.1255 20.4786 59.1255 19.2916Z" fill="#1D2D35"/>
<path d="M63.3078 19.6779H66.0773C66.1998 20.6199 66.6708 21.2039 67.9613 21.2039C69.1106 21.2039 69.6475 20.7706 69.6475 20.0264C69.6475 19.2822 69.007 18.9808 67.4715 18.7641C64.6455 18.3308 63.5151 17.5112 63.5151 15.42C63.5151 13.3287 65.5686 12.0759 67.7541 12.0759C70.1374 12.0759 71.9177 12.9425 72.1815 15.4011H69.4591C69.299 14.5157 68.7997 14.1106 67.7823 14.1106C66.765 14.1106 66.2657 14.5628 66.2657 15.2127C66.2657 15.8627 66.7744 16.1548 68.3287 16.3808C71.0134 16.7671 72.4924 17.4453 72.4924 19.7438C72.4924 22.0423 70.8156 23.2669 67.9802 23.2669C65.1447 23.2669 63.4114 21.9952 63.3078 19.6779Z" fill="#1D2D35"/>
<path d="M73.2554 17.8127V17.6525C73.2197 16.9163 73.3373 16.1807 73.6007 15.4924C73.8641 14.804 74.2677 14.1779 74.7857 13.6536C75.3038 13.1293 75.9251 12.7184 76.6103 12.4468C77.2955 12.1752 78.0296 12.0489 78.7662 12.0758C81.5357 12.0758 83.9943 13.6961 83.9943 17.5301V18.3496H76.2981C76.3735 20.13 77.3437 21.1756 78.9546 21.1756C80.3299 21.1756 81.0081 20.5822 81.1965 19.6778H84.0226C83.674 21.9952 81.8277 23.2857 78.898 23.2857C75.6104 23.2669 73.2554 21.2416 73.2554 17.8127ZM81.1023 16.5221C81.0081 14.9019 80.1792 14.1671 78.7662 14.1671C78.13 14.1641 77.5175 14.4078 77.0573 14.8469C76.597 15.2861 76.3249 15.8865 76.2981 16.5221H81.1023Z" fill="#1D2D35"/>
<path d="M84.7762 17.8126V17.6524C84.7403 16.9146 84.8584 16.1774 85.1229 15.4877C85.3875 14.798 85.7927 14.1709 86.3128 13.6463C86.833 13.1218 87.4566 12.7113 88.144 12.4409C88.8315 12.1705 89.5676 12.0461 90.3058 12.0758C92.7926 12.0758 95.0817 13.1591 95.3549 16.2394H92.5289C92.5101 15.975 92.4383 15.7171 92.3179 15.481C92.1975 15.2448 92.0308 15.0353 91.8279 14.8649C91.6249 14.6944 91.3897 14.5665 91.1363 14.4887C90.8829 14.4108 90.6165 14.3848 90.3529 14.4119C88.8174 14.4119 87.7906 15.5612 87.7906 17.6148V17.7749C87.7906 19.9321 88.7326 21.0342 90.4188 21.0342C90.7057 21.0507 90.993 21.01 91.264 20.9144C91.535 20.8188 91.7842 20.6702 91.9973 20.4773C92.2103 20.2845 92.3828 20.0512 92.5048 19.791C92.6268 19.5308 92.6958 19.2489 92.7079 18.9618H95.3926C95.2324 21.5052 93.3861 23.2668 90.2681 23.2668C87.15 23.2668 84.7762 21.3168 84.7762 17.8126Z" fill="#1D2D35"/>
<path d="M96.0804 20.0735C96.0804 17.5677 98.3695 16.6257 101.648 16.6257H102.863V16.2018C102.863 14.9301 102.467 14.233 101.12 14.233C100.899 14.2042 100.675 14.2212 100.46 14.2832C100.246 14.3451 100.047 14.4505 99.8757 14.5928C99.7041 14.7352 99.5638 14.9114 99.4635 15.1104C99.3632 15.3095 99.305 15.5271 99.2926 15.7497H96.4666C96.655 13.2062 98.6615 12.0758 101.28 12.0758C103.899 12.0758 105.774 13.1403 105.774 16.0511V23.0408H102.882V21.7502C102.519 22.2616 102.029 22.6702 101.461 22.936C100.894 23.2018 100.266 23.3158 99.6412 23.2669C97.7572 23.2669 96.0804 22.3249 96.0804 20.0735ZM102.863 19.2916V18.3496H101.732C100.009 18.3496 99.0006 18.7264 99.0006 19.8662C99.0006 20.6481 99.481 21.1662 100.564 21.1662C101.893 21.2039 102.901 20.4785 102.901 19.2916H102.863Z" fill="#1D2D35"/>
<path d="M107.865 12.283H110.832V13.9221C111.156 13.3398 111.632 12.8566 112.209 12.5247C112.787 12.1927 113.444 12.0245 114.11 12.0381C114.746 11.9873 115.381 12.1432 115.921 12.4827C116.461 12.8222 116.876 13.3271 117.106 13.9221C117.501 13.3312 118.039 12.8491 118.669 12.5199C119.3 12.1908 120.003 12.0251 120.714 12.0381C122.701 12.0381 124.237 13.291 124.237 16.1358V23.0031H121.288V16.5032C121.288 15.1279 120.676 14.5156 119.602 14.5156C119.316 14.5032 119.031 14.5525 118.767 14.6603C118.502 14.7681 118.263 14.9317 118.067 15.1401C117.872 15.3484 117.723 15.5966 117.632 15.8676C117.541 16.1386 117.509 16.4261 117.539 16.7105V23.0407H114.581V16.5032C114.581 15.1279 113.95 14.5156 112.904 14.5156C112.618 14.5018 112.332 14.5501 112.066 14.6572C111.8 14.7644 111.56 14.9278 111.363 15.1363C111.166 15.3449 111.017 15.5935 110.925 15.8652C110.834 16.1369 110.802 16.4253 110.832 16.7105V23.0407H107.865V12.283Z" fill="#1D2D35"/>
<path d="M126.272 12.283H129.248V13.9692C129.603 13.3795 130.104 12.8916 130.704 12.5532C131.303 12.2148 131.98 12.0373 132.668 12.0381C135.296 12.0381 137.378 13.9881 137.378 17.53V17.6996C137.378 21.2415 135.371 23.2292 132.668 23.2292C131.98 23.2574 131.298 23.0967 130.695 22.7646C130.092 22.4324 129.592 21.9415 129.248 21.3451V26.6957H126.272V12.283ZM134.326 17.5583C134.326 15.3822 133.261 14.3178 131.764 14.3178C130.266 14.3178 129.145 15.4011 129.145 17.5583V17.7184C129.145 19.8662 130.172 20.9118 131.792 20.9118C133.412 20.9118 134.326 19.8191 134.326 17.7561V17.5583Z" fill="#1D2D35"/>
<path fill-rule="evenodd" clip-rule="evenodd" d="M18.2801 3.27279C9.92121 3.27279 5.56197 10.3529 3.12123 17.273C2.82618 18.1095 1.90886 18.5485 1.07233 18.2534C0.474007 18.0424 0.0790706 17.513 0.0106243 16.9226C-0.0166257 16.6875 0.00787313 16.4427 0.0918888 16.2045C2.56842 9.18296 7.62924 0.0605469 18.2801 0.0605469C23.8472 0.0605469 27.832 3.74358 30.4092 8.16828C32.9931 12.6046 34.3707 18.0978 34.6812 22.533C34.7035 22.8518 34.6302 23.17 34.4707 23.4469C32.9782 26.0377 30.4952 27.726 27.6649 28.7601C24.8416 29.7917 21.5711 30.2131 18.293 30.2142C15.5078 30.2576 12.746 29.7002 10.1956 28.5799C7.64117 27.4578 5.35912 25.7974 3.5054 23.7123C3.11105 23.2687 2.99348 22.6438 3.19966 22.0872L3.20087 22.0839L3.20318 22.0778L3.21103 22.0568L3.23947 21.9818C3.26399 21.9176 3.29953 21.8256 3.34533 21.7097C3.43687 21.478 3.56972 21.15 3.73769 20.7575C4.07216 19.9759 4.55267 18.9225 5.12988 17.859C5.6995 16.8095 6.39995 15.6812 7.18764 14.7922C7.90573 13.9818 9.02189 12.9946 10.4505 12.9849L10.4614 12.9848C11.4709 12.9848 12.3002 13.4471 12.8971 13.8914C13.4988 14.3393 14.0452 14.9085 14.483 15.3719C14.5333 15.425 14.5821 15.4768 14.6296 15.5272C15.0374 15.9595 15.3493 16.2902 15.6456 16.5378C15.6789 16.5657 15.7094 16.5902 15.7374 16.6118C15.8337 16.5134 15.9487 16.3843 16.081 16.2202C16.5518 15.6366 17.0805 14.8146 17.5922 13.9345C18.0971 13.066 18.5567 12.1911 18.8917 11.5293C19.0587 11.1996 19.1934 10.9253 19.2859 10.7346C19.3321 10.6392 19.3677 10.5649 19.3915 10.5151L19.418 10.4592L19.4243 10.4458L19.4256 10.443C19.8022 9.63993 20.7586 9.29367 21.5617 9.67014C22.3649 10.0466 22.7108 11.0029 22.3343 11.8061L22.3308 11.8135L22.3225 11.8312L22.2916 11.8963C22.2649 11.9524 22.226 12.0335 22.1763 12.136C22.077 12.3408 21.934 12.6318 21.7576 12.9803C21.4059 13.675 20.9158 14.6088 20.3692 15.549C19.8294 16.4775 19.2047 17.4641 18.5813 18.237C18.2721 18.6203 17.9216 19.0037 17.5426 19.3051C17.2076 19.5716 16.6166 19.9651 15.8591 19.9651C14.8574 19.9651 14.0682 19.4058 13.5858 19.0027C13.1311 18.6228 12.677 18.1399 12.2954 17.7343C12.2451 17.6808 12.196 17.6286 12.1483 17.5781C11.696 17.0995 11.3263 16.7267 10.9789 16.4681C10.6745 16.2414 10.519 16.2042 10.4744 16.1982C10.4744 16.1982 10.4712 16.1994 10.4684 16.2004C10.4193 16.2177 10.1242 16.3217 9.59183 16.9226C9.03982 17.5455 8.47504 18.4296 7.95311 19.3913C7.43877 20.3389 7.00141 21.2956 6.6909 22.0212C6.65088 22.1147 6.61309 22.2041 6.57763 22.2889C7.99118 23.6974 9.65537 24.8341 11.4875 25.6389C13.6186 26.575 15.9266 27.04 18.2539 27.0021L18.2801 27.0019C21.3184 27.0019 24.1944 26.6082 26.5625 25.743C28.7412 24.947 30.4031 23.7868 31.4362 22.2467C31.0861 18.2996 29.8289 13.5544 27.6334 9.78499C25.3357 5.83997 22.2178 3.27279 18.2801 3.27279ZM15.4733 16.84C15.4733 16.84 15.4803 16.8347 15.4938 16.8278C15.48 16.8372 15.4733 16.84 15.4733 16.84Z" fill="#1D2D35"/>
</svg>
